<svg width="498" height="170" viewBox="0 0 498 170" fill="none" xmlns="http://www.w3.org/2000/svg">
<g filter="url(#filter0_d_103_15)">
<path d="M206.989 54.9107V67.6836H194.707V123H179.773V67.6836H167.491V54.9107H206.989ZM240.406 54.9107H255.34V123H240.406V96.0787H226.847V123H211.912V54.9107H226.847V82.9128H240.406V54.9107ZM264.205 54.9107H298.692V67.6836H278.943V82.1268H296.039V94.8996H278.943V110.227H298.692V123H264.205V54.9107ZM363.779 70.5329V76.9194C363.779 83.273 361.454 87.1704 356.803 88.6115C361.847 89.7905 364.369 93.7206 364.369 100.402V107.378C364.369 117.793 358.801 123 347.666 123H323.79V54.9107H347.076C358.212 54.9107 363.779 60.1181 363.779 70.5329ZM344.62 67.2906H338.528V82.1268H344.62C347.698 82.1268 349.238 80.7185 349.238 77.9019V71.5154C349.238 68.6989 347.698 67.2906 344.62 67.2906ZM349.827 106.395V99.4193C349.827 96.6027 348.288 95.1944 345.209 95.1944H338.528V110.62H345.209C348.288 110.62 349.827 109.212 349.827 106.395ZM372.245 54.9107H406.732V67.6836H386.983V82.1268H404.079V94.8996H386.983V110.227H406.732V123H372.245V54.9107ZM413.6 54.9107H448.086V67.6836H428.338V82.1268H445.434V94.8996H428.338V110.227H448.086V123H413.6V54.9107ZM469.692 98.4368V123H454.954V54.9107H477.159C482.53 54.9107 486.723 56.188 489.736 58.7426C492.749 61.2971 494.255 65.0307 494.255 69.9434V82.5198C494.255 90.38 491.57 95.2927 486.199 97.2577L496.908 123H480.696L471.559 98.4368H469.692ZM469.692 67.4871V86.7447H475.489C476.996 86.7447 478.044 86.4171 478.633 85.7621C479.223 85.1071 479.517 83.9608 479.517 82.3233V71.2207C479.517 69.7796 479.19 68.7971 478.535 68.2731C477.88 67.7491 476.865 67.4871 475.489 67.4871H469.692Z" fill="url(#paint0_linear_103_15)"/>
</g>
<circle cx="10" cy="10" r="10" fill="#FFD100"/>
<circle cx="30" cy="30" r="6" fill="#FFD100"/>
<path d="M34 93.6C34 99.84 37.8316 105.12 43.5789 107.04V122.4H34V132H62.7368V122.4H53.1579V107.04C58.9053 105.12 62.7368 99.84 62.7368 93.6V55.2H34V93.6ZM43.5789 64.8H53.1579V79.2H43.5789V64.8ZM118.295 67.2L113.505 65.76C112.068 65.28 110.632 63.36 110.632 61.44V40.8C110.632 38.4 108.237 36 105.842 36H91.4737C88.6 36 86.6842 38.4 86.6842 40.8V61.44C86.6842 63.36 85.2474 65.28 83.3316 66.24L79.021 67.68C75.1895 69.12 72.3158 72.48 72.3158 76.8V122.4C72.3158 127.68 76.6263 132 81.8947 132H115.421C120.689 132 125 127.68 125 122.4V76.32C125 72.48 122.605 68.64 118.295 67.2ZM96.2632 45.6H101.053V50.4H96.2632V45.6ZM81.8947 76.32L86.2053 74.88C92.4316 72.96 96.2632 67.68 96.2632 61.44V60H101.053V61.44C101.053 67.68 104.884 72.96 110.632 74.88L115.421 76.32V84H81.8947V76.32ZM115.421 122.4H81.8947V112.8H115.421V122.4Z" fill="white"/>
<defs>
<filter id="filter0_d_103_15" x="166.491" y="54.9107" width="331.417" height="73.0893" filterUnits="userSpaceOnUse" color-interpolation-filters="sRGB">
<feFlood flood-opacity="0" result="BackgroundImageFix"/>
<feColorMatrix in="SourceAlpha" type="matrix" values="0 0 0 0 0 0 0 0 0 0 0 0 0 0 0 0 0 0 127 0" result="hardAlpha"/>
<feOffset dy="4"/>
<feGaussianBlur stdDeviation="0.5"/>
<feComposite in2="hardAlpha" operator="out"/>
<feColorMatrix type="matrix" values="0 0 0 0 0 0 0 0 0 0 0 0 0 0 0 0 0 0 0.25 0"/>
<feBlend mode="normal" in2="BackgroundImageFix" result="effect1_dropShadow_103_15"/>
<feBlend mode="normal" in="SourceGraphic" in2="effect1_dropShadow_103_15" result="shape"/>
</filter>
<linearGradient id="paint0_linear_103_15" x1="332.5" y1="20" x2="332.5" y2="170" gradientUnits="userSpaceOnUse">
<stop stop-color="#FFE600"/>
<stop offset="1" stop-color="#FFB800"/>
</linearGradient>
</defs>
</svg>
