<svg width="193" height="193" viewBox="0 0 193 193" fill="none" xmlns="http://www.w3.org/2000/svg">
<rect width="193" height="193" rx="24" fill="url(#paint0_linear_103_15)"/>
<circle cx="27" cy="30" r="10" fill="#FFE600"/>
<circle cx="47" cy="50" r="6" fill="#FFE600"/>
<path d="M51 113.6C51 119.84 54.8316 125.12 60.5789 127.04V142.4H51V152H79.7368V142.4H70.1579V127.04C75.9053 125.12 79.7368 119.84 79.7368 113.6V75.2H51V113.6ZM60.5789 84.8H70.1579V99.2H60.5789V84.8ZM135.295 87.2L130.505 85.76C129.068 85.28 127.632 83.36 127.632 81.44V60.8C127.632 58.4 125.237 56 122.842 56H108.474C105.6 56 103.684 58.4 103.684 60.8V81.44C103.684 83.36 102.247 85.28 100.332 86.24L96.021 87.68C92.1895 89.12 89.3158 92.48 89.3158 96.8V142.4C89.3158 147.68 93.6263 152 98.8947 152H132.421C137.689 152 142 147.68 142 142.4V96.32C142 92.48 139.605 88.64 135.295 87.2ZM113.263 65.6H118.053V70.4H113.263V65.6ZM98.8947 96.32L103.205 94.88C109.432 92.96 113.263 87.68 113.263 81.44V80H118.053V81.44C118.053 87.68 121.884 92.96 127.632 94.88L132.421 96.32V104H98.8947V96.32ZM132.421 142.4H98.8947V132.8H132.421V142.4Z" fill="white"/>
<defs>
<linearGradient id="paint0_linear_103_15" x1="96.5" y1="0" x2="96.5" y2="193" gradientUnits="userSpaceOnUse">
<stop stop-color="#0B0100"/>
<stop offset="1" stop-color="#180F0B"/>
</linearGradient>
</defs>
</svg>
